<?xml version="1.0" encoding="UTF-8"?>
<svg version="1.1" xmlns="http://www.w3.org/2000/svg" width="64" height="64">
<path d="M0 0 C1.87558594 0.00966797 1.87558594 0.00966797 3.7890625 0.01953125 C5.09101563 0.03628906 6.39296875 0.05304687 7.734375 0.0703125 C9.05179688 0.07933594 10.36921875 0.08835937 11.7265625 0.09765625 C14.97934962 0.12122717 18.23177089 0.15413228 21.484375 0.1953125 C21.86656267 1.85145907 22.19832602 3.51988274 22.484375 5.1953125 C20.75820778 6.92147972 18.41284534 6.38599673 16.05859375 6.44140625 C14.95193359 6.47427734 13.84527344 6.50714844 12.70507812 6.54101562 C10.36141888 6.60190672 8.01766418 6.65923497 5.67382812 6.71289062 C4.00803711 6.76413086 4.00803711 6.76413086 2.30859375 6.81640625 C1.28854248 6.8414624 0.26849121 6.86651855 -0.7824707 6.89233398 C-3.53624971 7.19759881 -5.21942069 7.66439891 -7.515625 9.1953125 C-8.43161927 11.59935988 -8.43161927 11.59935988 -8.765625 14.3203125 C-9.013125 15.9290625 -9.260625 17.5378125 -9.515625 19.1953125 C-5.225625 19.1953125 -0.935625 19.1953125 3.484375 19.1953125 C3.484375 20.8453125 3.484375 22.4953125 3.484375 24.1953125 C2.484375 25.1953125 2.484375 25.1953125 -0.23828125 25.29296875 C-1.34042969 25.28136719 -2.44257813 25.26976563 -3.578125 25.2578125 C-5.23521484 25.24427734 -5.23521484 25.24427734 -6.92578125 25.23046875 C-7.78042969 25.21886719 -8.63507812 25.20726563 -9.515625 25.1953125 C-9.46374959 28.94644148 -9.36867282 32.69526782 -9.265625 36.4453125 C-9.25144531 37.50878906 -9.23726562 38.57226562 -9.22265625 39.66796875 C-9.19042969 40.69277344 -9.15820312 41.71757813 -9.125 42.7734375 C-9.10405273 43.71606445 -9.08310547 44.65869141 -9.06152344 45.62988281 C-8.31697693 49.12885181 -7.51112221 50.20633903 -4.515625 52.1953125 C-1.36800928 52.78017386 1.72771586 52.7557694 4.921875 52.7265625 C5.8389624 52.7303894 6.7560498 52.73421631 7.70092773 52.73815918 C9.63754373 52.74087799 11.57419647 52.73351896 13.51074219 52.71679688 C16.47414053 52.69538644 19.43511451 52.71659919 22.3984375 52.7421875 C24.28125535 52.73954422 26.16407169 52.73441923 28.046875 52.7265625 C28.93238037 52.73465942 29.81788574 52.74275635 30.73022461 52.75109863 C34.48160321 52.69394972 36.8066482 52.61626566 40.03613281 50.61035156 C42.01236381 47.31485644 42.03091414 44.85642468 42.09375 41.0234375 C42.11028625 40.3410199 42.12682251 39.65860229 42.14385986 38.95550537 C42.19227339 36.78534896 42.21369365 34.61589278 42.234375 32.4453125 C42.26254062 30.97001698 42.29246889 29.49475399 42.32421875 28.01953125 C42.39802725 24.41161052 42.44764394 20.80382278 42.484375 17.1953125 C44.14052157 16.81312483 45.80894524 16.48136148 47.484375 16.1953125 C49.43987717 18.15081467 48.67179504 21.88343068 48.6875 24.5546875 C48.69320007 25.29607971 48.69890015 26.03747192 48.70477295 26.80133057 C48.71423885 28.37502611 48.72076322 29.94874162 48.72460938 31.52246094 C48.73427935 33.92158137 48.76527131 36.31983218 48.796875 38.71875 C48.80340851 40.24739074 48.80865761 41.77603762 48.8125 43.3046875 C48.8248468 44.01945251 48.8371936 44.73421753 48.84991455 45.47064209 C48.83026175 49.90465647 48.30912873 52.73633613 45.484375 56.1953125 C40.89696861 60.27164619 35.47541998 59.62869785 29.671875 59.59375 C28.10215942 59.59805527 28.10215942 59.59805527 26.50073242 59.60244751 C24.29182391 59.60448578 22.08289725 59.59897254 19.87402344 59.58642578 C16.49633354 59.57036935 13.11984025 59.58628313 9.7421875 59.60546875 C7.59374736 59.60348628 5.44530797 59.59964252 3.296875 59.59375 C1.78420044 59.60285904 1.78420044 59.60285904 0.2409668 59.6121521 C-8.77195179 59.52191143 -8.77195179 59.52191143 -12.515625 56.1953125 C-16.31366269 51.76028191 -15.9831255 47.06975974 -15.984375 41.51171875 C-15.99198853 40.5785936 -15.99960205 39.64546844 -16.00744629 38.68406677 C-16.01822952 36.71477936 -16.02110763 34.74543483 -16.01660156 32.77612305 C-16.01562927 29.77099833 -16.05726997 26.76842819 -16.1015625 23.76367188 C-16.10676995 21.84635947 -16.10945769 19.92903823 -16.109375 18.01171875 C-16.12577026 17.11779922 -16.14216553 16.2238797 -16.15905762 15.3028717 C-16.11230987 11.06134875 -15.9089826 8.10697821 -13.22851562 4.70678711 C-8.69741795 0.51209652 -6.17542395 -0.05614022 0 0 Z " fill="#C19179" transform="translate(15.515625,4.8046875)"/>
<path d="M0 0 C3.6875 0.8125 3.6875 0.8125 6.1875 2.3125 C7.84459437 5.07432395 8.55554034 7.29037829 8.3984375 10.53515625 C6.80707712 15.63275572 2.40085889 19.15845994 -1.3125 22.8125 C-2.27542969 23.87984375 -2.27542969 23.87984375 -3.2578125 24.96875 C-6.08827671 28.06576017 -7.61979362 29.62358008 -11.75 30.75 C-13.0184375 30.7809375 -13.0184375 30.7809375 -14.3125 30.8125 C-15.02514648 28.55737305 -15.02514648 28.55737305 -15.3125 25.8125 C-13.95727539 23.80786133 -13.95727539 23.80786133 -11.91015625 21.89453125 C-10.82250977 20.84942383 -10.82250977 20.84942383 -9.71289062 19.78320312 C-8.55563477 18.71489258 -8.55563477 18.71489258 -7.375 17.625 C-5.86186751 16.19825963 -4.35253506 14.76747466 -2.84765625 13.33203125 C-2.170979 12.70401611 -1.49430176 12.07600098 -0.79711914 11.42895508 C0.91297819 9.9327943 0.91297819 9.9327943 0.6875 7.8125 C-3.3073063 9.38817766 -5.55445175 12.01385144 -8.375 15.1875 C-9.23222656 16.14398438 -10.08945312 17.10046875 -10.97265625 18.0859375 C-13.2781591 20.68350387 -13.2781591 20.68350387 -14.953125 23.1484375 C-15.40171875 23.69757812 -15.8503125 24.24671875 -16.3125 24.8125 C-19 25.0625 -19 25.0625 -21.3125 24.8125 C-22.0546875 23.13671875 -22.0546875 23.13671875 -22.3125 20.8125 C-19.78499956 16.7799302 -16.48442815 13.35060277 -13.3125 9.8125 C-12.16201172 8.46671875 -12.16201172 8.46671875 -10.98828125 7.09375 C-4.79845876 0.26658104 -4.79845876 0.26658104 0 0 Z " fill="#C19179" transform="translate(56.3125,-0.8125)"/>
<path d="M0 0 C2.15026211 1.60167588 2.89318567 2.47747584 3.43359375 5.12109375 C3.43552734 6.26771484 3.43552734 6.26771484 3.4375 7.4375 C3.46650391 8.58025391 3.46650391 8.58025391 3.49609375 9.74609375 C2.78336312 12.98424789 1.69865605 14.0846859 -1 16 C-3.70501681 16.34619521 -5.94128596 16.47268308 -8.625 16.375 C-9.6459375 16.37306641 -9.6459375 16.37306641 -10.6875 16.37109375 C-15.71838846 16.28161154 -15.71838846 16.28161154 -18 14 C-17.77309495 9.00808892 -16.09309173 5.86636466 -13 2 C-8.60582141 -1.78387601 -5.38323081 -1.21556825 0 0 Z " fill="#C19179" transform="translate(37,27)"/>
<path d="M0 0 C12.54 0 25.08 0 38 0 C38 1.65 38 3.3 38 5 C36.21169552 6.78830448 33.80418848 6.12848711 31.42358398 6.13894653 C30.64442627 6.1369223 29.86526855 6.13489807 29.0625 6.1328125 C27.86959351 6.13424759 27.86959351 6.13424759 26.65258789 6.13571167 C24.9679354 6.13639343 23.28328029 6.13453943 21.59863281 6.13037109 C19.01100803 6.12502275 16.42355684 6.13031619 13.8359375 6.13671875 C12.20312461 6.13605797 10.57031184 6.1347768 8.9375 6.1328125 C8.15834229 6.13483673 7.37918457 6.13686096 6.57641602 6.13894653 C1.11495105 6.11495105 1.11495105 6.11495105 0 5 C0 3.35 0 1.7 0 0 Z " fill="#C19179" transform="translate(13,48)"/>
<path d="M0 0 C2.5 0.25 2.5 0.25 4.5 2.25 C4.75 4.75 4.75 4.75 4.5 7.25 C3.84 7.91 3.18 8.57 2.5 9.25 C-0.625 8.875 -0.625 8.875 -3.5 8.25 C-4.125 5.375 -4.125 5.375 -4.5 2.25 C-2.5 0.25 -2.5 0.25 0 0 Z " fill="#C19179" transform="translate(22.5,12.75)"/>
<path d="M0 0 C3 0.125 3 0.125 4 1.125 C4.1875 4.0625 4.1875 4.0625 4 7.125 C3.34 7.785 2.68 8.445 2 9.125 C-2.55555556 8.56944444 -2.55555556 8.56944444 -4 7.125 C-4.125 4.125 -4.125 4.125 -4 1.125 C-3 0.125 -3 0.125 0 0 Z " fill="#C19179" transform="translate(12,12.875)"/>
</svg>
